<?xml version="1.0" encoding="utf-8"?>
<!-- Generator: Adobe Illustrator 15.0.2, SVG Export Plug-In . SVG Version: 6.00 Build 0)  -->
<!DOCTYPE svg PUBLIC "-//W3C//DTD SVG 1.1//EN" "http://www.w3.org/Graphics/SVG/1.1/DTD/svg11.dtd">
<svg version="1.1" id="Layer_1" xmlns="http://www.w3.org/2000/svg" xmlns:xlink="http://www.w3.org/1999/xlink" x="0px" y="0px"
	 width="830px" height="530px" viewBox="0 0 830 530" enable-background="new 0 0 830 530" xml:space="preserve">
<path fill="#FFFFFF" d="M627.811,265c0,118.135-95.277,213.903-212.809,213.903c-117.533,0-212.813-95.769-212.813-213.903
	s95.28-213.903,212.813-213.903C532.533,51.097,627.811,146.865,627.811,265"/>
<path fill="#007048" d="M413.801,128.618c7.492,4.318,15.438,9.877,21.485,15.767l-2.375,2.386
	c-11.937-1.269-24.509,0.316-35.825,0.491c-1.262-1.273-3.805-3.188-1.437-4.789L413.801,128.618z M624.874,276.903
	c0.159,5.387,0.664,10.016-1.438,15.53c-21.808,6.204-36.132-16.888-57.29-13.404l2.39,11.969
	c19.576,0.643,31.804,19.416,52.028,18.609c-2.872,5.736,1.282,20.855-11.446,14.812c-13.215-3.176-22.769-14.812-37.248-14.812
	c-1.747,3.207-0.641,7.646-0.947,11.443c15.275,2.395,26.261,15.307,41.532,17.689c-1.437,5.249-2.859,11.125-7.161,14.324
	c-12.422-3.023-22.129-14.181-35.353-13.862l-2.355,10.99c12.569,0.321,20.69,11.443,31.986,14.781
	c0.31,4.636-3.833,8.778-6.219,12.916c-10.029-3.012-17.676-11.627-29.134-10.989c-0.159-4.318,2.402-9.221,1.436-13.836
	c-12.867,3.829-21.498-8.13-31.035-15.302c-0.276-23.473-24.984-38.872-26.289-60.859c-0.252-4.387,0.417-9.065,2.414-14.092
	c8.121-18.779,5.57-43.158-3.334-60.665c-2.704-4.607-7.5-8.245-11.97-10.952c6.539,13.854,14.504,30.223,10.529,47.253
	c-0.462,13.15-8.22,25.78-8.309,38.456c-0.031,4.519,0.936,9.039,3.534,13.605c10.354,18.644,28.979,36.294,21.976,59.679
	c-1.927,7.184-7.659,12.738-9.092,20.047c12.111,10.03,23.563,21.336,39.635,21.971c5.726-3.655,2.546-19.875,14.322-12.394
	l17.203,8.603c-1.254,4.604-5.109,8.729-8.6,11.901c-6.525-3.177-12.891-6.984-21.028-6.674c-2.399,2.549-4.464,5.403-4.282,9.059
	c5.727,0.941,10.979,3.356,15.762,6.708c-2.221,4.782-6.549,7.778-10.527,11.443l-13.343-4.771
	c-2.227,3.188-6.855,6.537-5.232,10.035c3.014,1.288,6.351,3.031,8.568,5.264c-5.892,6.366-13.354,10.46-20.537,14.781
	c-6.186-20.221-26.571-34.396-24.819-57.781l-0.949-0.948c-4.791,5.389-3.19,14.002-2.881,20.994
	c5.735,14.646,19.414,25.959,21.487,42.021c-2.395,4.134-7.795,4.956-11.936,6.708c0.48-28.958-43.446-50.923-15.278-80.215
	c9.397-14.344,25.136-28.032,19.559-47.781c-5.727-19.067-25.979-30.88-25.8-52.255l0.031-1.667
	c4.613-22.29,18.625-46.008,7.162-69.719c-3.195-9.539-10.334-20.376-20.042-24.364c14.477,16.57,20.213,43.603,11.934,65.896
	c-4.175,8.868-9.92,19.434-10.497,29.857h-0.036c-0.306,5.443,0.806,10.858,4.318,15.991c10.988,17.835,30.08,37.422,19.098,60.663
	c-12.415,18.614-34.059,37.551-21.972,62.068c8.755,14.643,22.296,29.254,18.642,47.254l-14.323,4.771
	c9.549-33.575-37.252-53.304-17.659-86.889c12.097-17.985,33.73-34.858,21.481-58.729c-7.32-14.79-22.448-23.544-21.971-42.026
	l0.521-3.104c4.93-26.214,24.856-51.027,10.922-79.039c-3.66-8.271-10.978-16.702-19.099-21.481l-0.49,0.489
	c16.244,15.757,21.185,41.684,12.428,62.525c-4.087,12.229-13.057,24.406-14.879,37.511c-0.866,6.18-0.135,12.58,3.436,19.324
	c10.346,16.383,28.483,33.758,17.165,54.938c-11.921,17.495-31.824,34.514-23.875,57.263c8.758,19.902,27.041,38.861,17.168,63.54
	l-14.779,3.337c11.772-24.049-5.883-47.913-16.224-68.771c-12.58-29.926,27.028-44.255,27.667-71.614
	c-0.149-17.659-18.925-27.685-22.892-43.92c-8.125-6.854-16.547,2.728-26.262,0.948c-7.169,1.439-18.185-9.872-22.465,2.39
	c-5.098,17.978-28.323,31.192-18.118,52.515c9.715,18.949,33.086,32.804,25.279,57.325c-6.989,22.904-30.086,44.713-15.76,71.128
	c-5.885-1.905-16.871,1.743-16.713-7.655c-9.067-31.99,29.604-50.628,17.659-82.603c-5.558-19.584-30.885-30.404-25.31-53.959
	c4.122-19.391,25.88-32.946,22.827-54.185c-0.246-1.779-0.684-3.599-1.31-5.497c-8.121-22.919-24.689-45.844-14.813-72.595
	c2.711-7.64,8.124-14.166,12.885-20.993c-15.757,8.433-23.707,26.267-23.381,44.406c-0.688,19.728,13.886,36.626,15.958,54.679
	c0.816,7.284-0.376,14.743-5.462,22.658c-10.336,14.026-23.856,28.816-17.657,47.286c5.892,18.63,29.128,29.919,27.696,51.574
	c-0.16,25.614-29.922,41.563-21.486,70.211l-14.812-4.808c-5.883-25.457,21.171-38.48,21.481-62.035
	c3.829-27.085-30.719-37.135-28.645-63.539c-0.148-20.063,17.512-32.768,25.31-49.643c1.337-4.106,1.783-7.986,1.604-11.705
	c-0.954-18.657-17.767-33.246-14.977-54.224c0.938-15.438,6.191-28.969,16.223-40.582c-13.839,5.56-19.558,21.493-23.379,34.866
	c-6.636,21.44,9.202,40.728,10.788,59.939c0.704,8.482-1.368,16.917-9.35,25.539c-11.466,13.513-23.095,30.562-14.817,48.723
	c8.765,20.039,36.309,35.637,24.364,60.629c-6.518,15.76-22.125,27.689-21.485,46.307c-4.135-1.751-8.423-3.498-11.937-6.672
	c0-23.712,33.731-38.522,17.66-63.508c-1.426,4.929-1.73,11.629-2.847,17.199c-5.578,14.493-17.51,26.091-21.975,41.071
	c-7.47-2.881-15.274-8.938-21.488-15.303l8.605-5.265c-0.956-3.191-3.498-5.893-5.724-8.6c-5.586-0.784-9.255,2.881-13.861,4.318
	c-3.979-3.509-7.819-6.693-10.988-10.99c2.854-8.133,25.169-1.408,13.865-14.781c-7.632-4.771-15.291,2.045-21.978,5.229
	l-9.059-11.443c7.799-4.772,15.577-11.471,25.277-9.551c2.391,4.306,2.559,10.636,7.162,12.885
	c16.397-0.318,28.018-12.721,40.588-22.434c-8.763-13.035-15.893-31.032-8.111-46.796c6.235-15.798,22.481-29.103,23.217-46.566
	c0.167-3.975-0.453-8.158-2.19-12.657c-8.593-22.126-11.624-52.033,4.772-71.618c-8.916,2.396-14.172,13.507-17.2,21.944
	c-9.856,21.605,2.609,41.625,3.041,62.331c0.058,3.723-0.242,7.455-1.146,11.216c-8.44,17.031-22.113,31.971-24.333,51.568
	c-9.713,6.194-17.685,17.029-31.523,13.372c-0.486,3.657,0.629,9.232,1.897,13.373c-10.975-0.461-18.459,7.628-27.698,11.448
	c-4.923-1.578-6.202-7.942-8.11-12.395c10.814-3.652,18.619-14.495,31.039-14.324c1.438-3.998-0.811-7.663-1.442-11.479
	c-15.446-6.855-39.935,33.894-41.991-1.437c15.436-0.951,25.298-15.283,40.586-16.71l0.457-11.445
	c-17.349-1.749-28.509,16.084-45.85,14.324l-3.822-15.271c20.058,1.254,32.011-16.724,51.114-17.69
	c2.536-3.339,2.846-8.272,3.334-12.885c-20.854-2.718-35.162,20.394-57.293,13.374c0,0-0.766-9.617-1.179-15.04h0.033
	c-0.15-2.122-0.296-3.598-0.296-3.598c19.735,7.657,37.076-6.519,53.958-13.835c4.294-1.285,10.99,0.943,12.916-3.828
	c-0.166-3.658,6.51-7.939,0.952-10.496c-24.684-3.35-41.079,26.419-66.389,12.883l-1.899-3.825
	c5.263-71.938,45.83-141.481,113.151-175.704c27.264-15.584,61.136-23.523,95.296-23.806c41.228-0.344,82.881,10.471,113.871,32.407
	c30.092,18.46,58.876,48.879,74.498,79.759c14.94,27.058,21.816,57.416,23.869,89.738c-26.111,19.728-43.626-18.585-70.214-10.012
	c1.435,4.148,2.224,8.436,5.266,11.938c23.562-0.166,39.789,24.505,64.455,14.78L624.874,276.903z M324.961,188.312
	c-16.555-10.827-37.545-0.632-52.975,5.266c-1.434-14.493-7.317-27.694-19.588-37.243c-1.19-0.594-2.837-1.839-4.318-1.931
	c-0.888-0.056-1.73,0.304-2.387,1.437c5.562,34.216-16.679,58.089-32.44,84.044c5.249,4.288,13.679,3.647,20.044,2.387
	c16.709-6.681,32.626-18.312,52.521-14.324c5.886-10.027,15.769-19.739,23.875-27.697c4.952-4.283,11.757-7.008,15.271-11.937
	L324.961,188.312z M375.588,209.798c-0.319,2.062,0.156,5.733,3.333,4.312c4.941-6.842,13.691-1.427,19.1-0.946v-1.925
	c-2.968-4.66-9.073-7-15.272-6.77c-1.433,0.052-2.884,0.259-4.284,0.586C376.392,205.518,374.946,207.415,375.588,209.798
	 M453.416,189.294c-4.445-9.87-14.631-13.865-23.875-16.254c-4.531-0.557-9.234-0.935-13.898-0.978
	c-0.875-0.009-1.745-0.021-2.616,0c-13.05,0.262-25.516,3.611-33.129,14.352c-1.094,3.032-5.901,7.289-1.437,10.007
	c10.024-0.64,21.469-1.897,28.155,6.707c0,7.648,4.936,17.822-3.335,21.485c-6.855-6.348-14.974,2.701-22.436-2.394
	c-3.505-2.072-5.725,0.349-7.16,3.372c-2.074,19.73,8.259,41.508,26.719,52.485c7.479,2.696,17.537,5.264,25.346,1.437
	c18.781-8.746,26.56-28.787,30.058-47.255c-0.47-3.513-0.303-10.36-5.233-10.527c-5.567,3.521-13.688,1.439-19.587,0
	c-3.491,1.127-3.65,6.231-7.621,7.197L420.947,227c-2.073-8.743-3.352-21.158,4.774-27.209c9.08-3.66,19.743-5.261,29.134-2.387
	C456.609,194.379,453.905,192.001,453.416,189.294 M443.834,204.987c-0.632,0.017-1.246,0.048-1.866,0.068
	c-3.335,2.225-13.054,0.626-9.546,8.108c6.053-4.787,14.487-1.432,20.536,0.946c2.237-1.109,1.75-3.336,1.898-5.259
	C452.913,205.238,448.273,204.9,443.834,204.987 M513.132,137.691c-11.781-0.623-21.647,6.064-32.472,9.088
	c-0.943-9.212,6.055-18.94,7.65-28.188c-17.503,1.126-31.366,11.662-45.846,20.077c-3.35-8.098-6.711-16.231-10.038-24.361
	l19.099-18.147l0.488-2.393l-25.798-1.438c-4.444-7.784-6.196-17.163-11.448-24.326c-4.297,8.116-7.186,16.708-11.479,24.815
	l-25.769,1.442v1.897l19.559,17.658c-2.394,9.075-4.612,18.941-10.498,25.801c-11.459-6.864-22.755-14.332-35.317-19.101
	c-3.023-0.975-7.332-2.562-10.038-0.489c3.975,8.759,9.538,18.176,8.602,27.733c-5.258-0.966-9.387-4.338-14.325-5.752
	c-5.904-1.612-12.911-4.761-18.641-2.846c9.554,13.361,17.349,27.347,20.046,43.427c31.687-15.295,68.641-23.707,107.003-17.171
	c17.98,2.862,34.514,10.185,50.594,16.22C495.13,164.781,505.794,151.229,513.132,137.691 M567.547,229.381
	c16.224,4.295,32.497,21.97,49.675,10.502c-14.962-24.824-37.227-47.751-31.035-80.215c0.647-2.216-0.783-4.462-2.845-4.775
	c-9.704,3.968-17.223,13.529-21.062,22.928c-1.581,5.557-2.515,11.466-4.74,16.707c-11.626-6.051-24.032-11.913-38.197-10.497
	c-5.109,0.637-12.43,0.971-13.373,6.214c16.075,8.592,29.293,22.929,39.146,38.196C551.975,227.322,560.386,228.277,567.547,229.381
	 M397.562,251.819l0.459,2.877c6.219,4.143,8.133,11.167,16.744,10.53c7.635,0.452,13.363-6.701,17.168-12.428
	C421.599,251.37,409.026,253.578,397.562,251.819L397.562,251.819z M406.16,238.937c0.311,1.273-0.788,3.185,0.947,3.826
	c5.093-1.105,14.32,2.712,17.167-3.337c-1.986-2.225-5.229-3.233-8.632-3.233C412.241,236.192,408.713,237.182,406.16,238.937"/>
<g>
	<path fill="#007048" d="M560.648,472.292h-2.985v-19.671h-7.411v-2.683h17.837v2.683h-7.44V472.292z"/>
	<path fill="#007048" d="M593.698,472.292v-19.989l-7.138,19.989h-2.576l-7.381-19.777v19.777h-2.985v-22.354h5.092l6.639,18.231
		l6.334-18.231h4.94v22.354H593.698z"/>
</g>
</svg>
